<svg width="68" height="62" viewBox="0 0 68 62" fill="none" xmlns="http://www.w3.org/2000/svg">
<rect width="68" height="62" rx="31" fill="#F3F5F9"/>
<path d="M47 20H21C20.4469 20 20 20.4469 20 21V41C20 41.5531 20.4469 42 21 42H47C47.5531 42 48 41.5531 48 41V21C48 20.4469 47.5531 20 47 20ZM45.75 23.4625V39.75H22.25V23.4625L21.3875 22.7906L22.6156 21.2125L23.9531 22.2531H44.05L45.3875 21.2125L46.6156 22.7906L45.75 23.4625ZM44.05 22.25L34 30.0625L23.95 22.25L22.6125 21.2094L21.3844 22.7875L22.2469 23.4594L32.9219 31.7594C33.2289 31.9979 33.6066 32.1273 33.9953 32.1273C34.3841 32.1273 34.7618 31.9979 35.0688 31.7594L45.75 23.4625L46.6125 22.7906L45.3844 21.2125L44.05 22.25Z" fill="#515066"/>
</svg>
