<svg width="64" height="64" viewBox="0 0 64 64" fill="none" xmlns="http://www.w3.org/2000/svg">
<rect width="64" height="64.0031" rx="32" fill="#F3F5F9"/>
<path d="M42.9531 23.801L39.7581 20.609C39.3681 20.219 38.8461 20 38.2941 20C37.7421 20 37.2201 20.216 36.8301 20.609L33.3891 24.044C32.9991 24.434 32.7801 24.959 32.7801 25.511C32.7801 26.066 32.9961 26.585 33.3891 26.978L36.0771 29.669C35.4647 31.0958 34.5849 32.3921 33.4851 33.4881C32.3841 34.5951 31.097 35.4681 29.669 36.0861L26.981 33.3951C26.591 33.0051 26.069 32.7861 25.517 32.7861C25.2448 32.785 24.975 32.8384 24.7236 32.943C24.4722 33.0475 24.2442 33.2012 24.053 33.3951L20.609 36.8301C20.219 37.2201 20 37.7451 20 38.2971C20 38.8521 20.216 39.3711 20.609 39.7641L23.801 42.9561C24.467 43.6221 25.385 44.0031 26.327 44.0031C26.522 44.0031 26.711 43.9881 26.903 43.9551C30.875 43.3011 34.8171 41.1861 38.0001 38.0061C41.1801 34.8201 43.2921 30.878 43.9521 26.903C44.1411 25.775 43.7631 24.614 42.9531 23.801ZM41.8251 26.546C41.2401 30.083 39.3381 33.6111 36.4731 36.4761C33.6081 39.3411 30.083 41.2431 26.546 41.8281C26.102 41.9031 25.646 41.7531 25.322 41.4321L22.187 38.2971L25.511 34.9701L29.105 38.5701L29.132 38.5971L29.78 38.3571C31.7448 37.6347 33.5291 36.4937 35.009 35.0132C36.489 33.5327 37.6294 31.7481 38.3511 29.783L38.5911 29.135L34.9671 25.514L38.2911 22.187L41.4261 25.322C41.7501 25.646 41.9001 26.102 41.8251 26.546Z" fill="#515066"/>
</svg>
