<?xml version="1.0" ?><svg data-name="Layer 1" id="Layer_1" viewBox="0 0 512 512" xmlns="http://www.w3.org/2000/svg"><path d="M487.62,332.45,463.1,308V297.24a37.12,37.12,0,0,0-10.93-26.4L337.36,156c-9.06-9-23.94-8.8-33.23.48a24.1,24.1,0,0,0-6.75,12.94L286.62,158.7c-4.4-4.39-10.16-7.12-16.6-6.63a24.27,24.27,0,0,0-23.38,20.16L183,108.57a67.78,67.78,0,0,0-45.61-19.73L121.67,73.16a4.95,4.95,0,0,0-7,7l17.08,17.08a4.94,4.94,0,0,0,3.5,1.44A57.91,57.91,0,0,1,176,115.56l57.05,57A24.36,24.36,0,0,0,213.05,196a22.72,22.72,0,0,0,6.63,16.6l5.62,5.62a24.26,24.26,0,0,0-19.75,20l-18-18a4.95,4.95,0,0,0-7,7l64.36,64.36,8.62,8.62c5.2,5.19,5,13.84-.48,19.28s-14.09,5.66-19.28.48l-73-73a5,5,0,0,0-7,7l64.36,64.35a13,13,0,0,1,3.76,9.45,14.35,14.35,0,0,1-4.25,9.84c-5.45,5.45-14.09,5.66-19.28.47l-73.35-73.35a5.05,5.05,0,0,0-.77-.63l-1.9-1.89c22.53-37.5-10.24-73.6-10.58-74a4.95,4.95,0,1,0-7.26,6.72c.31.32,29.84,32.84,7.46,65.1a5,5,0,0,0,.56,6.32l37.88,37.88a23.15,23.15,0,0,1,0,32.78l-2,2a1.62,1.62,0,0,1-2.32,0L73.34,266.3a41.77,41.77,0,0,1-12.28-28.55l-.91-35.39a5.1,5.1,0,0,0-.42-1.89l-6.62-14.82a5.51,5.51,0,0,0-1-1.48L31.38,163.46a4.95,4.95,0,0,0-7,7l20.07,20.06,5.84,13.09.89,34.4A51.68,51.68,0,0,0,66.34,273.3l72.75,72.76a11.58,11.58,0,0,0,16.32,0l2-2a32.81,32.81,0,0,0,9.69-23.23l24.29,24.28a22.78,22.78,0,0,0,16.19,6.63,24.34,24.34,0,0,0,24-21.1,22.88,22.88,0,0,0,11.38,3h.45a24.31,24.31,0,0,0,23.45-20.41l40.57,40.56c-3.92,3.23-13.4,7.53-33.41.93-19.36-6.39-33.71-3.4-45.13,9.48-2.92,3.3-6.76,10.35-5.34,16.25a9,9,0,0,0,5.66,6.43l85.94,29.72a66.37,66.37,0,0,0,33.3,4l22.7-3.13,21.4,21.41a5,5,0,1,0,7-7l-23.13-23.12a4.78,4.78,0,0,0-4.17-1.39l-25.15,3.46a56.4,56.4,0,0,1-28.5-3.52l-85.44-29.16c-.29-1,.83-4.8,3.13-7.42,6.13-6.91,15.05-13.1,34.64-6.64,24.84,8.22,37.67,1.91,43.5-3.31l21.07,21.06a4.93,4.93,0,0,0,3.5,1.44,4.94,4.94,0,0,0,3.5-8.44L218.86,251.16c-5.18-5.17-5-13.81.47-19.24s14.06-5.69,19.23-.48l59,59a4.95,4.95,0,0,0,7-7l-39.19-39.19a.6.6,0,0,0-.08-.08l-38.59-38.59a12.81,12.81,0,0,1-3.74-9.42,14.45,14.45,0,0,1,14-14,13.23,13.23,0,0,1,8.37,2.8l3,3a4.5,4.5,0,0,0,.68.56l3.85,3.85.05.05,72.95,73a5,5,0,0,0,7,0,5,5,0,0,0,0-7l-73-73c-5.17-5.16-5-13.8.48-19.24A14.17,14.17,0,0,1,270.2,162c3.71-.58,6.95,1.26,9.42,3.75l24,24,14.56,14.55L352,238a4.95,4.95,0,0,0,7-7l-33.76-33.76-14.56-14.55c-5.17-5.17-5-13.79.48-19.22s14.07-5.66,19.23-.48L445.17,277.84a27.24,27.24,0,0,1,8,19.4V310a5,5,0,0,0,1.45,3.51l26,26a5,5,0,1,0,7-7Z"/></svg>