<svg width="20" height="24" viewBox="0 0 20 24" fill="none" xmlns="http://www.w3.org/2000/svg">
<path d="M19.1772 6.02967C18.6729 4.86685 17.9459 3.81401 17.037 2.93057C16.1252 2.03914 15.0503 1.33162 13.871 0.846638C12.6442 0.337709 11.3424 0.0805664 10.0004 0.0805664C8.65846 0.0805664 7.35667 0.337709 6.12988 0.843959C4.94328 1.33414 3.87988 2.03592 2.96381 2.92789C2.05557 3.81183 1.32859 4.86455 0.823633 6.02699C0.301311 7.23235 0.0361328 8.51271 0.0361328 9.83057C0.0361328 11.7216 0.488812 13.6047 1.3781 15.4207C2.09328 16.8806 3.09238 18.3029 4.35131 19.6556C6.50221 21.9645 8.75756 23.3761 9.39774 23.7538C9.57946 23.8611 9.7867 23.9175 9.99774 23.9172C10.2067 23.9172 10.4129 23.8636 10.5977 23.7538C11.2379 23.3761 13.4933 21.9645 15.6442 19.6556C16.9031 18.3056 17.9022 16.8806 18.6174 15.4207C19.512 13.6074 19.9647 11.727 19.9647 9.83325C19.9647 8.51539 19.6995 7.23503 19.1772 6.02967ZM10.0004 21.8627C8.23524 20.7404 1.9647 16.2966 1.9647 9.83325C1.9647 7.74664 2.79774 5.78592 4.31113 4.30735C5.82988 2.8261 7.84953 2.00914 10.0004 2.00914C12.1513 2.00914 14.171 2.8261 15.6897 4.31003C17.2031 5.78592 18.0361 7.74664 18.0361 9.83325C18.0361 16.2966 11.7656 20.7404 10.0004 21.8627ZM10.0004 5.33057C7.39685 5.33057 5.28613 7.44128 5.28613 10.0449C5.28613 12.6484 7.39685 14.7591 10.0004 14.7591C12.604 14.7591 14.7147 12.6484 14.7147 10.0449C14.7147 7.44128 12.604 5.33057 10.0004 5.33057ZM12.1218 12.1663C11.8436 12.4453 11.5129 12.6666 11.1489 12.8174C10.7848 12.9682 10.3945 13.0455 10.0004 13.0449C9.19953 13.0449 8.44685 12.7315 7.87899 12.1663C7.59995 11.888 7.37867 11.5574 7.22789 11.1933C7.07711 10.8292 6.99981 10.4389 7.00042 10.0449C7.00042 9.24396 7.31381 8.49128 7.87899 7.92342C8.44685 7.35557 9.19953 7.04485 10.0004 7.04485C10.8013 7.04485 11.554 7.35557 12.1218 7.92342C12.6897 8.49128 13.0004 9.24396 13.0004 10.0449C13.0004 10.8457 12.6897 11.5984 12.1218 12.1663Z" fill="#72728C"/>
</svg>
