<svg width="32" height="32" viewBox="0 0 32 32" fill="none" xmlns="http://www.w3.org/2000/svg">
<path d="M28.7158 23.8574H26.2051C26.0336 23.8574 25.8729 23.9324 25.7658 24.0646C25.5158 24.3681 25.2479 24.661 24.9658 24.9396C23.8118 26.0947 22.445 27.0152 20.9408 27.6503C19.3824 28.3085 17.7075 28.6461 16.0158 28.6431C14.3051 28.6431 12.6479 28.3074 11.0908 27.6503C9.58659 27.0152 8.21973 26.0947 7.06578 24.9396C5.90976 23.7883 4.98798 22.4239 4.35149 20.9217C3.69078 19.3645 3.35864 17.711 3.35864 16.0003C3.35864 14.2895 3.69435 12.636 4.35149 11.0788C4.98721 9.57526 5.90149 8.22169 7.06578 7.06098C8.23006 5.90026 9.58364 4.98598 11.0908 4.35026C12.6479 3.69312 14.3051 3.35741 16.0158 3.35741C17.7265 3.35741 19.3836 3.68955 20.9408 4.35026C22.4479 4.98598 23.8015 5.90026 24.9658 7.06098C25.2479 7.34312 25.5122 7.63598 25.7658 7.93598C25.8729 8.06812 26.0372 8.14312 26.2051 8.14312H28.7158C28.9408 8.14312 29.0801 7.89312 28.9551 7.70384C26.2158 3.44669 21.4229 0.628835 15.9765 0.64312C7.41935 0.664549 0.558635 7.61098 0.644349 16.1574C0.730063 24.5681 7.58006 31.3574 16.0158 31.3574C21.4479 31.3574 26.2193 28.5431 28.9551 24.2967C29.0765 24.1074 28.9408 23.8574 28.7158 23.8574ZM31.8908 15.7753L26.8229 11.7753C26.6336 11.6253 26.3586 11.761 26.3586 12.0003V14.7146H15.1444C14.9872 14.7146 14.8586 14.8431 14.8586 15.0003V17.0003C14.8586 17.1574 14.9872 17.286 15.1444 17.286H26.3586V20.0003C26.3586 20.2395 26.6372 20.3753 26.8229 20.2253L31.8908 16.2253C31.9249 16.1985 31.9525 16.1644 31.9715 16.1254C31.9905 16.0864 32.0004 16.0436 32.0004 16.0003C32.0004 15.9569 31.9905 15.9141 31.9715 15.8751C31.9525 15.8361 31.9249 15.802 31.8908 15.7753Z" fill="#515066"/>
</svg>
